<mxfile host="65bd71144e">
    <diagram id="cttUkUFFzSHb7aEH2Uw1" name="Page-1">
        <mxGraphModel dx="2627" dy="733" grid="1" gridSize="10" guides="1" tooltips="1" connect="1" arrows="1" fold="1" page="1" pageScale="1" pageWidth="850" pageHeight="1100" math="0" shadow="0">
            <root>
                <mxCell id="0"/>
                <mxCell id="1" parent="0"/>
                <mxCell id="2" value="" style="rounded=1;whiteSpace=wrap;html=1;fillColor=#e1d5e7;strokeColor=#9673a6;arcSize=10;" parent="1" vertex="1">
                    <mxGeometry y="170" width="700" height="420" as="geometry"/>
                </mxCell>
                <mxCell id="13" style="edgeStyle=orthogonalEdgeStyle;html=1;exitX=1;exitY=0.5;exitDx=0;exitDy=0;strokeWidth=3;fillColor=#d5e8d4;strokeColor=#82b366;" parent="1" source="3" target="4" edge="1">
                    <mxGeometry relative="1" as="geometry"/>
                </mxCell>
                <mxCell id="3" value="C&lt;sub&gt;t-1&lt;/sub&gt;" style="ellipse;whiteSpace=wrap;html=1;aspect=fixed;fontSize=20;fillColor=#d5e8d4;strokeColor=#82b366;" parent="1" vertex="1">
                    <mxGeometry x="-102" y="179" width="60" height="60" as="geometry"/>
                </mxCell>
                <mxCell id="44" style="edgeStyle=orthogonalEdgeStyle;html=1;strokeWidth=3;fillColor=#d5e8d4;strokeColor=#82b366;" parent="1" source="4" target="8" edge="1">
                    <mxGeometry relative="1" as="geometry"/>
                </mxCell>
                <mxCell id="4" value="&lt;font style=&quot;font-size: 36px;&quot;&gt;×&lt;/font&gt;" style="ellipse;whiteSpace=wrap;html=1;aspect=fixed;" parent="1" vertex="1">
                    <mxGeometry x="140" y="189" width="40" height="40" as="geometry"/>
                </mxCell>
                <mxCell id="19" style="edgeStyle=none;html=1;exitX=0.5;exitY=0;exitDx=0;exitDy=0;strokeWidth=3;" parent="1" source="5" target="18" edge="1">
                    <mxGeometry relative="1" as="geometry"/>
                </mxCell>
                <mxCell id="5" value="&lt;font style=&quot;font-size: 36px;&quot;&gt;+&lt;/font&gt;" style="rounded=1;whiteSpace=wrap;html=1;" parent="1" vertex="1">
                    <mxGeometry x="60" y="440" width="80" height="30" as="geometry"/>
                </mxCell>
                <mxCell id="58" style="edgeStyle=orthogonalEdgeStyle;html=1;strokeWidth=3;fillColor=#d5e8d4;strokeColor=#82b366;" parent="1" source="8" target="57" edge="1">
                    <mxGeometry relative="1" as="geometry"/>
                </mxCell>
                <mxCell id="63" style="edgeStyle=none;html=1;strokeWidth=3;fillColor=#d5e8d4;strokeColor=#82b366;" parent="1" source="8" target="62" edge="1">
                    <mxGeometry relative="1" as="geometry"/>
                </mxCell>
                <mxCell id="8" value="&lt;font style=&quot;font-size: 36px;&quot;&gt;+&lt;/font&gt;" style="rounded=1;whiteSpace=wrap;html=1;" parent="1" vertex="1">
                    <mxGeometry x="330" y="194" width="80" height="30" as="geometry"/>
                </mxCell>
                <mxCell id="15" style="edgeStyle=orthogonalEdgeStyle;html=1;strokeWidth=3;fillColor=#fff2cc;strokeColor=#d6b656;" parent="1" source="9" target="5" edge="1">
                    <mxGeometry relative="1" as="geometry">
                        <mxPoint x="100.00000000000023" y="486" as="targetPoint"/>
                    </mxGeometry>
                </mxCell>
                <mxCell id="9" value="x&lt;sub&gt;t&lt;/sub&gt;" style="ellipse;whiteSpace=wrap;html=1;aspect=fixed;fontSize=20;fillColor=#ffe6cc;strokeColor=#d79b00;" parent="1" vertex="1">
                    <mxGeometry x="70" y="600" width="60" height="60" as="geometry"/>
                </mxCell>
                <mxCell id="10" value="h&lt;sub&gt;t-1&lt;/sub&gt;" style="ellipse;whiteSpace=wrap;html=1;aspect=fixed;fontSize=20;fillColor=#f8cecc;strokeColor=#b85450;" parent="1" vertex="1">
                    <mxGeometry x="-102" y="510" width="60" height="60" as="geometry"/>
                </mxCell>
                <mxCell id="14" style="edgeStyle=orthogonalEdgeStyle;html=1;strokeWidth=3;fillColor=#f8cecc;strokeColor=#b85450;" parent="1" source="10" target="5" edge="1">
                    <mxGeometry relative="1" as="geometry">
                        <mxPoint x="-60.2678625053627" y="536" as="sourcePoint"/>
                        <mxPoint x="70.00000000000023" y="486" as="targetPoint"/>
                        <Array as="points">
                            <mxPoint x="70" y="540"/>
                        </Array>
                    </mxGeometry>
                </mxCell>
                <mxCell id="20" style="edgeStyle=orthogonalEdgeStyle;html=1;strokeWidth=3;" parent="1" source="18" target="4" edge="1">
                    <mxGeometry relative="1" as="geometry">
                        <mxPoint x="100" y="309" as="sourcePoint"/>
                        <Array as="points">
                            <mxPoint x="100" y="279"/>
                            <mxPoint x="160" y="279"/>
                        </Array>
                    </mxGeometry>
                </mxCell>
                <mxCell id="18" value="&lt;span style=&quot;color: rgb(32, 33, 34); font-family: &amp;quot;Times New Roman&amp;quot;, serif; background-color: rgb(248, 249, 250);&quot;&gt;&lt;font style=&quot;font-size: 36px;&quot;&gt;σ&lt;/font&gt;&lt;/span&gt;" style="shape=hexagon;perimeter=hexagonPerimeter2;whiteSpace=wrap;html=1;fixedSize=1;size=10;" parent="1" vertex="1">
                    <mxGeometry x="70" y="340" width="60" height="50" as="geometry"/>
                </mxCell>
                <mxCell id="29" style="edgeStyle=orthogonalEdgeStyle;html=1;strokeWidth=3;fillColor=#d5e8d4;strokeColor=#82b366;" parent="1" source="3" target="31" edge="1">
                    <mxGeometry relative="1" as="geometry">
                        <mxPoint x="110" y="240" as="sourcePoint"/>
                        <Array as="points">
                            <mxPoint x="120" y="209"/>
                            <mxPoint x="120" y="300"/>
                            <mxPoint x="180" y="300"/>
                            <mxPoint x="180" y="455"/>
                        </Array>
                    </mxGeometry>
                </mxCell>
                <mxCell id="30" style="edgeStyle=none;html=1;exitX=0.5;exitY=0;exitDx=0;exitDy=0;strokeWidth=3;" parent="1" source="31" target="34" edge="1">
                    <mxGeometry relative="1" as="geometry"/>
                </mxCell>
                <mxCell id="31" value="&lt;font style=&quot;font-size: 36px;&quot;&gt;+&lt;/font&gt;" style="rounded=1;whiteSpace=wrap;html=1;" parent="1" vertex="1">
                    <mxGeometry x="230" y="440" width="80" height="30" as="geometry"/>
                </mxCell>
                <mxCell id="32" style="edgeStyle=orthogonalEdgeStyle;html=1;strokeWidth=3;fillColor=#fff2cc;strokeColor=#d6b656;" parent="1" source="9" target="31" edge="1">
                    <mxGeometry relative="1" as="geometry">
                        <mxPoint x="270" y="596" as="sourcePoint"/>
                        <mxPoint x="270" y="486" as="targetPoint"/>
                        <Array as="points">
                            <mxPoint x="100" y="570"/>
                            <mxPoint x="270" y="570"/>
                        </Array>
                    </mxGeometry>
                </mxCell>
                <mxCell id="33" style="edgeStyle=orthogonalEdgeStyle;html=1;strokeWidth=3;fillColor=#f8cecc;strokeColor=#b85450;" parent="1" source="10" target="31" edge="1">
                    <mxGeometry relative="1" as="geometry">
                        <mxPoint x="-60.2678625053627" y="536" as="sourcePoint"/>
                        <Array as="points">
                            <mxPoint x="240" y="540"/>
                        </Array>
                        <mxPoint x="240" y="486" as="targetPoint"/>
                    </mxGeometry>
                </mxCell>
                <mxCell id="49" style="edgeStyle=orthogonalEdgeStyle;html=1;strokeWidth=3;" parent="1" source="34" target="45" edge="1">
                    <mxGeometry relative="1" as="geometry">
                        <Array as="points">
                            <mxPoint x="270" y="270"/>
                        </Array>
                    </mxGeometry>
                </mxCell>
                <mxCell id="34" value="&lt;span style=&quot;color: rgb(32, 33, 34); font-family: &amp;quot;Times New Roman&amp;quot;, serif; background-color: rgb(248, 249, 250);&quot;&gt;&lt;font style=&quot;font-size: 36px;&quot;&gt;σ&lt;/font&gt;&lt;/span&gt;" style="shape=hexagon;perimeter=hexagonPerimeter2;whiteSpace=wrap;html=1;fixedSize=1;size=10;" parent="1" vertex="1">
                    <mxGeometry x="240" y="340" width="60" height="50" as="geometry"/>
                </mxCell>
                <mxCell id="39" style="edgeStyle=none;html=1;exitX=0.5;exitY=0;exitDx=0;exitDy=0;strokeWidth=3;" parent="1" source="40" target="43" edge="1">
                    <mxGeometry relative="1" as="geometry"/>
                </mxCell>
                <mxCell id="40" value="&lt;font style=&quot;font-size: 36px;&quot;&gt;+&lt;/font&gt;" style="rounded=1;whiteSpace=wrap;html=1;" parent="1" vertex="1">
                    <mxGeometry x="330" y="440" width="80" height="30" as="geometry"/>
                </mxCell>
                <mxCell id="41" style="edgeStyle=orthogonalEdgeStyle;html=1;strokeWidth=3;fillColor=#fff2cc;strokeColor=#d6b656;" parent="1" source="9" target="40" edge="1">
                    <mxGeometry relative="1" as="geometry">
                        <mxPoint x="200" y="596" as="sourcePoint"/>
                        <Array as="points">
                            <mxPoint x="100" y="570"/>
                            <mxPoint x="370" y="570"/>
                        </Array>
                        <mxPoint x="370" y="486" as="targetPoint"/>
                    </mxGeometry>
                </mxCell>
                <mxCell id="42" style="edgeStyle=orthogonalEdgeStyle;html=1;strokeWidth=3;fillColor=#f8cecc;strokeColor=#b85450;" parent="1" source="10" target="40" edge="1">
                    <mxGeometry relative="1" as="geometry">
                        <mxPoint x="-60.2678625053627" y="536" as="sourcePoint"/>
                        <Array as="points">
                            <mxPoint x="340" y="540"/>
                        </Array>
                        <mxPoint x="340" y="486" as="targetPoint"/>
                    </mxGeometry>
                </mxCell>
                <mxCell id="46" style="edgeStyle=orthogonalEdgeStyle;html=1;strokeWidth=3;" parent="1" source="43" target="45" edge="1">
                    <mxGeometry relative="1" as="geometry"/>
                </mxCell>
                <mxCell id="43" value="&lt;span style=&quot;color: rgb(32, 33, 34); font-family: &amp;quot;Times New Roman&amp;quot;, serif; background-color: rgb(248, 249, 250);&quot;&gt;&lt;font&gt;tanh&lt;/font&gt;&lt;/span&gt;" style="shape=hexagon;perimeter=hexagonPerimeter2;whiteSpace=wrap;html=1;fixedSize=1;size=10;fontSize=19;" parent="1" vertex="1">
                    <mxGeometry x="340" y="340" width="60" height="50" as="geometry"/>
                </mxCell>
                <mxCell id="47" style="edgeStyle=orthogonalEdgeStyle;html=1;strokeWidth=3;" parent="1" source="45" target="8" edge="1">
                    <mxGeometry relative="1" as="geometry"/>
                </mxCell>
                <mxCell id="45" value="&lt;font style=&quot;font-size: 36px;&quot;&gt;×&lt;/font&gt;" style="ellipse;whiteSpace=wrap;html=1;aspect=fixed;" parent="1" vertex="1">
                    <mxGeometry x="350" y="250" width="40" height="40" as="geometry"/>
                </mxCell>
                <mxCell id="52" style="edgeStyle=none;html=1;exitX=0.5;exitY=0;exitDx=0;exitDy=0;strokeWidth=3;" parent="1" source="53" target="56" edge="1">
                    <mxGeometry relative="1" as="geometry"/>
                </mxCell>
                <mxCell id="53" value="&lt;font style=&quot;font-size: 36px;&quot;&gt;+&lt;/font&gt;" style="rounded=1;whiteSpace=wrap;html=1;" parent="1" vertex="1">
                    <mxGeometry x="449" y="440" width="80" height="30" as="geometry"/>
                </mxCell>
                <mxCell id="54" style="edgeStyle=orthogonalEdgeStyle;html=1;strokeWidth=3;fillColor=#fff2cc;strokeColor=#d6b656;" parent="1" source="9" target="53" edge="1">
                    <mxGeometry relative="1" as="geometry">
                        <mxPoint x="360" y="596" as="sourcePoint"/>
                        <Array as="points">
                            <mxPoint x="100" y="570"/>
                            <mxPoint x="489" y="570"/>
                        </Array>
                        <mxPoint x="480" y="486" as="targetPoint"/>
                    </mxGeometry>
                </mxCell>
                <mxCell id="55" style="edgeStyle=orthogonalEdgeStyle;html=1;strokeWidth=3;fillColor=#f8cecc;strokeColor=#b85450;" parent="1" source="10" target="53" edge="1">
                    <mxGeometry relative="1" as="geometry">
                        <mxPoint x="-60.2678625053627" y="536" as="sourcePoint"/>
                        <Array as="points">
                            <mxPoint x="460" y="540"/>
                        </Array>
                        <mxPoint x="450" y="486" as="targetPoint"/>
                    </mxGeometry>
                </mxCell>
                <mxCell id="61" style="edgeStyle=none;html=1;strokeWidth=3;" parent="1" source="56" target="59" edge="1">
                    <mxGeometry relative="1" as="geometry"/>
                </mxCell>
                <mxCell id="56" value="&lt;span style=&quot;color: rgb(32, 33, 34); font-family: &amp;quot;Times New Roman&amp;quot;, serif; background-color: rgb(248, 249, 250);&quot;&gt;&lt;font style=&quot;font-size: 36px;&quot;&gt;σ&lt;/font&gt;&lt;/span&gt;" style="shape=hexagon;perimeter=hexagonPerimeter2;whiteSpace=wrap;html=1;fixedSize=1;size=10;" parent="1" vertex="1">
                    <mxGeometry x="459" y="340" width="60" height="50" as="geometry"/>
                </mxCell>
                <mxCell id="60" style="edgeStyle=none;html=1;strokeWidth=3;" parent="1" source="57" target="59" edge="1">
                    <mxGeometry relative="1" as="geometry"/>
                </mxCell>
                <mxCell id="57" value="&lt;span style=&quot;color: rgb(32, 33, 34); font-family: &amp;quot;Times New Roman&amp;quot;, serif; background-color: rgb(248, 249, 250);&quot;&gt;&lt;font&gt;tanh&lt;/font&gt;&lt;/span&gt;" style="shape=hexagon;perimeter=hexagonPerimeter2;whiteSpace=wrap;html=1;fixedSize=1;size=10;fontSize=19;" parent="1" vertex="1">
                    <mxGeometry x="549" y="245" width="60" height="50" as="geometry"/>
                </mxCell>
                <mxCell id="66" style="edgeStyle=orthogonalEdgeStyle;html=1;strokeWidth=3;fillColor=#f8cecc;strokeColor=#b85450;" parent="1" source="59" target="64" edge="1">
                    <mxGeometry relative="1" as="geometry">
                        <mxPoint x="574.38" y="400" as="sourcePoint"/>
                        <mxPoint x="770.0028449191008" y="535" as="targetPoint"/>
                        <Array as="points">
                            <mxPoint x="579" y="540"/>
                        </Array>
                    </mxGeometry>
                </mxCell>
                <mxCell id="67" style="edgeStyle=orthogonalEdgeStyle;html=1;strokeWidth=3;fillColor=#f8cecc;strokeColor=#b85450;" parent="1" source="59" target="65" edge="1">
                    <mxGeometry relative="1" as="geometry">
                        <Array as="points">
                            <mxPoint x="579" y="540"/>
                            <mxPoint x="669" y="540"/>
                        </Array>
                    </mxGeometry>
                </mxCell>
                <mxCell id="59" value="&lt;font style=&quot;font-size: 36px;&quot;&gt;×&lt;/font&gt;" style="ellipse;whiteSpace=wrap;html=1;aspect=fixed;" parent="1" vertex="1">
                    <mxGeometry x="559" y="345" width="40" height="40" as="geometry"/>
                </mxCell>
                <mxCell id="62" value="C&lt;sub&gt;t&lt;/sub&gt;" style="ellipse;whiteSpace=wrap;html=1;aspect=fixed;fontSize=20;fillColor=#d5e8d4;strokeColor=#82b366;" parent="1" vertex="1">
                    <mxGeometry x="736" y="179" width="60" height="60" as="geometry"/>
                </mxCell>
                <mxCell id="64" value="h&lt;sub&gt;t&lt;/sub&gt;" style="ellipse;whiteSpace=wrap;html=1;aspect=fixed;fontSize=20;fillColor=#f8cecc;strokeColor=#b85450;" parent="1" vertex="1">
                    <mxGeometry x="736" y="510" width="60" height="60" as="geometry"/>
                </mxCell>
                <mxCell id="65" value="h&lt;sub&gt;t&lt;/sub&gt;" style="ellipse;whiteSpace=wrap;html=1;aspect=fixed;fontSize=20;fillColor=#f8cecc;strokeColor=#b85450;" parent="1" vertex="1">
                    <mxGeometry x="639" y="50" width="60" height="60" as="geometry"/>
                </mxCell>
                <mxCell id="11" style="edgeStyle=orthogonalEdgeStyle;html=1;strokeWidth=3;fillColor=#d5e8d4;strokeColor=#82b366;" parent="1" source="3" target="5" edge="1">
                    <mxGeometry relative="1" as="geometry">
                        <Array as="points">
                            <mxPoint x="30" y="209"/>
                            <mxPoint x="30" y="455"/>
                        </Array>
                    </mxGeometry>
                </mxCell>
                <mxCell id="71" value="Jednotka LSTM" style="text;html=1;align=center;verticalAlign=middle;resizable=0;points=[];autosize=1;strokeColor=none;fillColor=none;fontColor=light-dark(#a082ae, #ededed);fontSize=19;" parent="1" vertex="1">
                    <mxGeometry x="509" y="584" width="160" height="40" as="geometry"/>
                </mxCell>
                <mxCell id="73" style="edgeStyle=none;html=1;fillColor=#dae8fc;strokeColor=#6c8ebf;strokeWidth=3;entryX=0.75;entryY=1;entryDx=0;entryDy=0;" parent="1" source="72" target="5" edge="1">
                    <mxGeometry relative="1" as="geometry">
                        <mxPoint x="130.48000000000025" y="486.84000000000015" as="targetPoint"/>
                    </mxGeometry>
                </mxCell>
                <mxCell id="72" value="b&lt;sub&gt;0&lt;/sub&gt;" style="ellipse;whiteSpace=wrap;html=1;aspect=fixed;fontSize=16;fillColor=#dae8fc;strokeColor=#6c8ebf;" parent="1" vertex="1">
                    <mxGeometry x="120" y="494" width="30" height="30" as="geometry"/>
                </mxCell>
                <mxCell id="74" style="edgeStyle=none;html=1;fillColor=#dae8fc;strokeColor=#6c8ebf;strokeWidth=3;entryX=0.75;entryY=1;entryDx=0;entryDy=0;" parent="1" source="75" target="31" edge="1">
                    <mxGeometry relative="1" as="geometry">
                        <mxPoint x="290" y="470" as="targetPoint"/>
                    </mxGeometry>
                </mxCell>
                <mxCell id="75" value="b&lt;sub&gt;1&lt;/sub&gt;" style="ellipse;whiteSpace=wrap;html=1;aspect=fixed;fontSize=16;fillColor=#dae8fc;strokeColor=#6c8ebf;" parent="1" vertex="1">
                    <mxGeometry x="290" y="494" width="30" height="30" as="geometry"/>
                </mxCell>
                <mxCell id="76" style="edgeStyle=none;html=1;fillColor=#dae8fc;strokeColor=#6c8ebf;strokeWidth=3;entryX=0.75;entryY=1;entryDx=0;entryDy=0;" parent="1" source="77" edge="1">
                    <mxGeometry relative="1" as="geometry">
                        <mxPoint x="390" y="470" as="targetPoint"/>
                    </mxGeometry>
                </mxCell>
                <mxCell id="77" value="b&lt;sub&gt;2&lt;/sub&gt;" style="ellipse;whiteSpace=wrap;html=1;aspect=fixed;fontSize=16;fillColor=#dae8fc;strokeColor=#6c8ebf;" parent="1" vertex="1">
                    <mxGeometry x="390" y="494" width="30" height="30" as="geometry"/>
                </mxCell>
                <mxCell id="82" style="edgeStyle=none;html=1;fillColor=#dae8fc;strokeColor=#6c8ebf;strokeWidth=3;entryX=0.75;entryY=1;entryDx=0;entryDy=0;" parent="1" source="83" edge="1">
                    <mxGeometry relative="1" as="geometry">
                        <mxPoint x="509" y="470" as="targetPoint"/>
                    </mxGeometry>
                </mxCell>
                <mxCell id="83" value="b&lt;sub&gt;3&lt;/sub&gt;" style="ellipse;whiteSpace=wrap;html=1;aspect=fixed;fontSize=16;fillColor=#dae8fc;strokeColor=#6c8ebf;" parent="1" vertex="1">
                    <mxGeometry x="509" y="494" width="30" height="30" as="geometry"/>
                </mxCell>
                <mxCell id="84" value="Zapomínací brána" style="text;html=1;align=center;verticalAlign=middle;resizable=0;points=[];autosize=1;strokeColor=none;fillColor=none;fontSize=18;" parent="1" vertex="1">
                    <mxGeometry x="20" y="93" width="170" height="40" as="geometry"/>
                </mxCell>
                <mxCell id="86" value="Výstupní brána" style="text;html=1;align=center;verticalAlign=middle;resizable=0;points=[];autosize=1;strokeColor=none;fillColor=none;fontSize=18;" parent="1" vertex="1">
                    <mxGeometry x="454" y="90" width="140" height="40" as="geometry"/>
                </mxCell>
                <mxCell id="87" value="Vstupní brána" style="text;html=1;align=center;verticalAlign=middle;resizable=0;points=[];autosize=1;strokeColor=none;fillColor=none;fontSize=18;" parent="1" vertex="1">
                    <mxGeometry x="255" y="93" width="140" height="40" as="geometry"/>
                </mxCell>
                <mxCell id="68" value="" style="rounded=1;whiteSpace=wrap;html=1;fillColor=none;dashed=1;dashPattern=1 2;" parent="1" vertex="1">
                    <mxGeometry x="20" y="130" width="170" height="420" as="geometry"/>
                </mxCell>
                <mxCell id="69" value="" style="rounded=1;whiteSpace=wrap;html=1;fillColor=none;dashed=1;dashPattern=1 2;" parent="1" vertex="1">
                    <mxGeometry x="220" y="130" width="210" height="420" as="geometry"/>
                </mxCell>
                <mxCell id="70" value="" style="rounded=1;whiteSpace=wrap;html=1;fillColor=none;dashed=1;dashPattern=1 2;" parent="1" vertex="1">
                    <mxGeometry x="439" y="130" width="170" height="420" as="geometry"/>
                </mxCell>
            </root>
        </mxGraphModel>
    </diagram>
</mxfile>